# xmcd CD database file
#
# Track frame offsets:
#	150
#	23762
#	46396
#	62766
#	85493
#	106636
#	125630
#	152196
#	176993
#	203452
#	230049
#	251680
#	273892
#	296245
#	318187
#
# Disc length: 4613 seconds
#
# Revision: 0
# Processed by: cddbd v1.5.1PL0 Copyright (c) Steve Scherf et al.
# Submitted via: CDex 1.51
#
DISCID=d512030f
DTITLE=Harlem Swing Trio - Live at Yorckschlösschen
DYEAR=2004
DGENRE=Jazz
TTITLE0=Back Home Again In Indiana
TTITLE1=Everything Happens To Me
TTITLE2=The Chickens Blues
TTITLE3=Nagasaki
TTITLE4=Steps To Paradise
TTITLE5=I'm Alone Because I Love You
TTITLE6=A Kiss To Build A Dream On
TTITLE7=Caldonia
TTITLE8=Pretty Little Thing
TTITLE9=Muskrat Ramble
TTITLE10=Qua-Ti Rhythm
TTITLE11=Song For Dee
TTITLE12=Keepin' Out Of Mischief Now
TTITLE13=China Boy
TTITLE14=I've Got The World On A String
EXTD=YEAR: 2004
EXTT0=
EXTT1=
EXTT2=
EXTT3=
EXTT4=
EXTT5=
EXTT6=
EXTT7=
EXTT8=
EXTT9=
EXTT10=
EXTT11=
EXTT12=
EXTT13=
EXTT14=
PLAYORDER=
